M48
; DRILL file {KiCad (5.1.6)-1} date 06/01/22 20:50:45
; FORMAT={-:-/ absolute / inch / decimal}
; #@! TF.CreationDate,2022-06-01T20:50:45-04:00
; #@! TF.GenerationSoftware,Kicad,Pcbnew,(5.1.6)-1
; #@! TF.FileFunction,Plated,1,2,PTH
FMAT,2
INCH
T1C0.0299
T2C0.0315
%
G90
G05
T1
X6.3Y-3.575
X6.35Y-3.475
X6.4Y-3.575
X6.45Y-3.475
X6.5Y-3.575
X6.55Y-3.475
T2
X6.425Y-3.1
X6.425Y-3.1787
X6.5037Y-3.1
X6.5037Y-3.1787
X6.5825Y-3.1
X6.5825Y-3.1787
X6.6612Y-3.1
X6.6612Y-3.1787
X6.74Y-3.1
X6.74Y-3.1787
X6.8187Y-3.1
X6.8187Y-3.1787
X6.8974Y-3.1
X6.8974Y-3.1787
X6.785Y-3.445
X6.785Y-3.645
T0
M30
