M48
; DRILL file {KiCad (5.1.6)-1} date 06/01/22 16:51:02
; FORMAT={-:-/ absolute / inch / decimal}
; #@! TF.CreationDate,2022-06-01T16:51:02-04:00
; #@! TF.GenerationSoftware,Kicad,Pcbnew,(5.1.6)-1
; #@! TF.FileFunction,Plated,1,2,PTH
FMAT,2
INCH
T1C0.0299
T2C0.0315
%
G90
G05
T1
X6.3Y-3.575
X6.35Y-3.475
X6.4Y-3.575
X6.45Y-3.475
X6.5Y-3.575
X6.55Y-3.475
T2
X6.225Y-3.325
X6.425Y-3.325
X6.46Y-3.0713
X6.46Y-3.15
X6.5388Y-3.0713
X6.5388Y-3.15
X6.6175Y-3.0713
X6.6175Y-3.15
X6.6963Y-3.0713
X6.6963Y-3.15
X6.775Y-3.0713
X6.775Y-3.15
X6.8537Y-3.0713
X6.8537Y-3.15
X6.9325Y-3.0713
X6.9325Y-3.15
T0
M30
