%TF.GenerationSoftware,KiCad,Pcbnew,(5.1.6)-1*%
%TF.CreationDate,2022-06-01T16:51:11-04:00*%
%TF.ProjectId,JTAG_adapter_board,4a544147-5f61-4646-9170-7465725f626f,rev?*%
%TF.SameCoordinates,Original*%
%TF.FileFunction,Copper,L1,Top*%
%TF.FilePolarity,Positive*%
%FSLAX46Y46*%
G04 Gerber Fmt 4.6, Leading zero omitted, Abs format (unit mm)*
G04 Created by KiCad (PCBNEW (5.1.6)-1) date 2022-06-01 16:51:11*
%MOMM*%
%LPD*%
G01*
G04 APERTURE LIST*
%TA.AperFunction,ComponentPad*%
%ADD10O,1.600000X1.600000*%
%TD*%
%TA.AperFunction,ComponentPad*%
%ADD11C,1.600000*%
%TD*%
%TA.AperFunction,ComponentPad*%
%ADD12R,1.350000X1.350000*%
%TD*%
%TA.AperFunction,ComponentPad*%
%ADD13O,1.350000X1.350000*%
%TD*%
%TA.AperFunction,ComponentPad*%
%ADD14C,1.520000*%
%TD*%
%TA.AperFunction,ComponentPad*%
%ADD15R,1.520000X1.520000*%
%TD*%
%TA.AperFunction,Conductor*%
%ADD16C,0.250000*%
%TD*%
%TA.AperFunction,Conductor*%
%ADD17C,0.508000*%
%TD*%
%TA.AperFunction,Conductor*%
%ADD18C,0.254000*%
%TD*%
G04 APERTURE END LIST*
D10*
%TO.P,R1,2*%
%TO.N,/TCK*%
X163195000Y-84455000D03*
D11*
%TO.P,R1,1*%
X158115000Y-84455000D03*
%TD*%
D12*
%TO.P,J1,1*%
%TO.N,GND*%
X176085000Y-80010000D03*
D13*
%TO.P,J1,2*%
X176085000Y-78010000D03*
%TO.P,J1,3*%
X174085000Y-80010000D03*
%TO.P,J1,4*%
X174085000Y-78010000D03*
%TO.P,J1,5*%
X172085000Y-80010000D03*
%TO.P,J1,6*%
%TO.N,N/C*%
X172085000Y-78010000D03*
%TO.P,J1,7*%
X170085000Y-80010000D03*
%TO.P,J1,8*%
X170085000Y-78010000D03*
%TO.P,J1,9*%
X168085000Y-80010000D03*
%TO.P,J1,10*%
%TO.N,/TDI*%
X168085000Y-78010000D03*
%TO.P,J1,11*%
%TO.N,/TD0*%
X166085000Y-80010000D03*
%TO.P,J1,12*%
%TO.N,/TCK*%
X166085000Y-78010000D03*
%TO.P,J1,13*%
%TO.N,/TMS*%
X164085000Y-80010000D03*
%TO.P,J1,14*%
%TO.N,+3V3*%
X164085000Y-78010000D03*
%TD*%
D14*
%TO.P,J2,6*%
%TO.N,+3V3*%
X160020000Y-90805000D03*
%TO.P,J2,5*%
%TO.N,/TMS*%
X161290000Y-88265000D03*
%TO.P,J2,4*%
%TO.N,/TDI*%
X162560000Y-90805000D03*
%TO.P,J2,3*%
%TO.N,/TCK*%
X163830000Y-88265000D03*
%TO.P,J2,2*%
%TO.N,GND*%
X165100000Y-90805000D03*
D15*
%TO.P,J2,1*%
%TO.N,/TD0*%
X166370000Y-88265000D03*
%TD*%
D16*
%TO.N,GND*%
X172085000Y-80010000D02*
X174085000Y-80010000D01*
X174085000Y-80010000D02*
X176085000Y-80010000D01*
X176085000Y-80010000D02*
X176085000Y-78010000D01*
X176085000Y-78010000D02*
X174085000Y-78010000D01*
D17*
%TO.N,/TDI*%
X167005000Y-75565000D02*
X168085000Y-76645000D01*
X168085000Y-76645000D02*
X168085000Y-78010000D01*
X160655000Y-75565000D02*
X167005000Y-75565000D01*
X156210000Y-80010000D02*
X160655000Y-75565000D01*
X162560000Y-92075000D02*
X160655000Y-93980000D01*
X156210000Y-92710000D02*
X156210000Y-80010000D01*
X162560000Y-90805000D02*
X162560000Y-92075000D01*
X157480000Y-93980000D02*
X156210000Y-92710000D01*
X160655000Y-93980000D02*
X157480000Y-93980000D01*
%TO.N,/TD0*%
X166085000Y-87980000D02*
X166370000Y-88265000D01*
X166085000Y-80010000D02*
X166085000Y-87980000D01*
%TO.N,/TCK*%
X163195000Y-87630000D02*
X163830000Y-88265000D01*
X163195000Y-84455000D02*
X163195000Y-87630000D01*
X166085000Y-77185000D02*
X166085000Y-78010000D01*
X165173010Y-76273010D02*
X166085000Y-77185000D01*
X163121990Y-76273010D02*
X165173010Y-76273010D01*
X158115000Y-84455000D02*
X158115000Y-81280000D01*
X158115000Y-81280000D02*
X163121990Y-76273010D01*
%TO.N,/TMS*%
X164085000Y-80010000D02*
X161545000Y-82550000D01*
X161545000Y-88010000D02*
X161290000Y-88265000D01*
X161545000Y-82550000D02*
X161545000Y-88010000D01*
%TO.N,+3V3*%
X160020000Y-82075000D02*
X164085000Y-78010000D01*
X160020000Y-90805000D02*
X160020000Y-82075000D01*
%TD*%
D18*
%TO.N,GND*%
G36*
X155612259Y-79350506D02*
G01*
X155578342Y-79378341D01*
X155550507Y-79412258D01*
X155550505Y-79412260D01*
X155467248Y-79513709D01*
X155384698Y-79668148D01*
X155333864Y-79835726D01*
X155316700Y-80010000D01*
X155321001Y-80053670D01*
X155321000Y-92666340D01*
X155316700Y-92710000D01*
X155321000Y-92753660D01*
X155321000Y-92753666D01*
X155327312Y-92817753D01*
X155333864Y-92884274D01*
X155354146Y-92951136D01*
X155384697Y-93051850D01*
X155467247Y-93206290D01*
X155578341Y-93341659D01*
X155612264Y-93369499D01*
X156820506Y-94577741D01*
X156848341Y-94611659D01*
X156983709Y-94722753D01*
X157138149Y-94805303D01*
X157204058Y-94825296D01*
X157305724Y-94856136D01*
X157338924Y-94859406D01*
X157436333Y-94869000D01*
X157436339Y-94869000D01*
X157479999Y-94873300D01*
X157523659Y-94869000D01*
X160611340Y-94869000D01*
X160655000Y-94873300D01*
X160698660Y-94869000D01*
X160698667Y-94869000D01*
X160829274Y-94856136D01*
X160996851Y-94805303D01*
X161151291Y-94722753D01*
X161286659Y-94611659D01*
X161314499Y-94577736D01*
X163157742Y-92734494D01*
X163191659Y-92706659D01*
X163302753Y-92571291D01*
X163385303Y-92416851D01*
X163436136Y-92249274D01*
X163449000Y-92118667D01*
X163449000Y-92118660D01*
X163453300Y-92075000D01*
X163449000Y-92031340D01*
X163449000Y-91888741D01*
X163449261Y-91888567D01*
X163568691Y-91769137D01*
X164315469Y-91769137D01*
X164382206Y-92009025D01*
X164630892Y-92125924D01*
X164897606Y-92192061D01*
X165172097Y-92204895D01*
X165443817Y-92163931D01*
X165702326Y-92070744D01*
X165817794Y-92009025D01*
X165884531Y-91769137D01*
X165100000Y-90984605D01*
X164315469Y-91769137D01*
X163568691Y-91769137D01*
X163643567Y-91694261D01*
X163796233Y-91465780D01*
X163827830Y-91389499D01*
X163834256Y-91407326D01*
X163895975Y-91522794D01*
X164135863Y-91589531D01*
X164920395Y-90805000D01*
X165279605Y-90805000D01*
X166064137Y-91589531D01*
X166304025Y-91522794D01*
X166420924Y-91274108D01*
X166487061Y-91007394D01*
X166499895Y-90732903D01*
X166458931Y-90461183D01*
X166365744Y-90202674D01*
X166304025Y-90087206D01*
X166064137Y-90020469D01*
X165279605Y-90805000D01*
X164920395Y-90805000D01*
X164135863Y-90020469D01*
X163895975Y-90087206D01*
X163830400Y-90226707D01*
X163796233Y-90144220D01*
X163643567Y-89915739D01*
X163449261Y-89721433D01*
X163220780Y-89568767D01*
X162966907Y-89463609D01*
X162697396Y-89410000D01*
X162422604Y-89410000D01*
X162153093Y-89463609D01*
X161899220Y-89568767D01*
X161670739Y-89721433D01*
X161476433Y-89915739D01*
X161323767Y-90144220D01*
X161290000Y-90225740D01*
X161256233Y-90144220D01*
X161103567Y-89915739D01*
X160909261Y-89721433D01*
X160909000Y-89721259D01*
X160909000Y-89611544D01*
X161152604Y-89660000D01*
X161427396Y-89660000D01*
X161696907Y-89606391D01*
X161950780Y-89501233D01*
X162179261Y-89348567D01*
X162373567Y-89154261D01*
X162526233Y-88925780D01*
X162560000Y-88844260D01*
X162593767Y-88925780D01*
X162746433Y-89154261D01*
X162940739Y-89348567D01*
X163169220Y-89501233D01*
X163423093Y-89606391D01*
X163692604Y-89660000D01*
X163967396Y-89660000D01*
X164236907Y-89606391D01*
X164490780Y-89501233D01*
X164719261Y-89348567D01*
X164913567Y-89154261D01*
X164975526Y-89061533D01*
X164984188Y-89149482D01*
X165020498Y-89269180D01*
X165079463Y-89379494D01*
X165103377Y-89408634D01*
X165027903Y-89405105D01*
X164756183Y-89446069D01*
X164497674Y-89539256D01*
X164382206Y-89600975D01*
X164315469Y-89840863D01*
X165100000Y-90625395D01*
X165884531Y-89840863D01*
X165835069Y-89663072D01*
X167130000Y-89663072D01*
X167254482Y-89650812D01*
X167374180Y-89614502D01*
X167484494Y-89555537D01*
X167581185Y-89476185D01*
X167660537Y-89379494D01*
X167719502Y-89269180D01*
X167755812Y-89149482D01*
X167768072Y-89025000D01*
X167768072Y-87505000D01*
X167755812Y-87380518D01*
X167719502Y-87260820D01*
X167660537Y-87150506D01*
X167581185Y-87053815D01*
X167484494Y-86974463D01*
X167374180Y-86915498D01*
X167254482Y-86879188D01*
X167130000Y-86866928D01*
X166974000Y-86866928D01*
X166974000Y-80973621D01*
X167085000Y-80862621D01*
X167249923Y-81027544D01*
X167464482Y-81170907D01*
X167702887Y-81269658D01*
X167955976Y-81320000D01*
X168214024Y-81320000D01*
X168467113Y-81269658D01*
X168705518Y-81170907D01*
X168920077Y-81027544D01*
X169085000Y-80862621D01*
X169249923Y-81027544D01*
X169464482Y-81170907D01*
X169702887Y-81269658D01*
X169955976Y-81320000D01*
X170214024Y-81320000D01*
X170467113Y-81269658D01*
X170705518Y-81170907D01*
X170920077Y-81027544D01*
X171091681Y-80855940D01*
X171213773Y-80988303D01*
X171421371Y-81139473D01*
X171654472Y-81247238D01*
X171755600Y-81277910D01*
X171958000Y-81154224D01*
X171958000Y-80137000D01*
X172212000Y-80137000D01*
X172212000Y-81154224D01*
X172414400Y-81277910D01*
X172515528Y-81247238D01*
X172748629Y-81139473D01*
X172956227Y-80988303D01*
X173085000Y-80848696D01*
X173213773Y-80988303D01*
X173421371Y-81139473D01*
X173654472Y-81247238D01*
X173755600Y-81277910D01*
X173958000Y-81154224D01*
X173958000Y-80137000D01*
X174212000Y-80137000D01*
X174212000Y-81154224D01*
X174414400Y-81277910D01*
X174515528Y-81247238D01*
X174748629Y-81139473D01*
X174881881Y-81042441D01*
X174958815Y-81136185D01*
X175055506Y-81215537D01*
X175165820Y-81274502D01*
X175285518Y-81310812D01*
X175410000Y-81323072D01*
X175799250Y-81320000D01*
X175958000Y-81161250D01*
X175958000Y-80137000D01*
X176212000Y-80137000D01*
X176212000Y-81161250D01*
X176370750Y-81320000D01*
X176760000Y-81323072D01*
X176884482Y-81310812D01*
X177004180Y-81274502D01*
X177114494Y-81215537D01*
X177211185Y-81136185D01*
X177290537Y-81039494D01*
X177349502Y-80929180D01*
X177385812Y-80809482D01*
X177398072Y-80685000D01*
X177395000Y-80295750D01*
X177236250Y-80137000D01*
X176212000Y-80137000D01*
X175958000Y-80137000D01*
X174212000Y-80137000D01*
X173958000Y-80137000D01*
X172212000Y-80137000D01*
X171958000Y-80137000D01*
X171938000Y-80137000D01*
X171938000Y-79883000D01*
X171958000Y-79883000D01*
X171958000Y-79863000D01*
X172212000Y-79863000D01*
X172212000Y-79883000D01*
X173958000Y-79883000D01*
X173958000Y-78137000D01*
X174212000Y-78137000D01*
X174212000Y-79883000D01*
X175958000Y-79883000D01*
X175958000Y-78137000D01*
X176212000Y-78137000D01*
X176212000Y-79883000D01*
X177236250Y-79883000D01*
X177395000Y-79724250D01*
X177398072Y-79335000D01*
X177385812Y-79210518D01*
X177349502Y-79090820D01*
X177290537Y-78980506D01*
X177211185Y-78883815D01*
X177120929Y-78809744D01*
X177130344Y-78799537D01*
X177264289Y-78580430D01*
X177352915Y-78339401D01*
X177230085Y-78137000D01*
X176212000Y-78137000D01*
X175958000Y-78137000D01*
X174212000Y-78137000D01*
X173958000Y-78137000D01*
X173938000Y-78137000D01*
X173938000Y-77883000D01*
X173958000Y-77883000D01*
X173958000Y-76865776D01*
X174212000Y-76865776D01*
X174212000Y-77883000D01*
X175958000Y-77883000D01*
X175958000Y-76865776D01*
X176212000Y-76865776D01*
X176212000Y-77883000D01*
X177230085Y-77883000D01*
X177352915Y-77680599D01*
X177264289Y-77439570D01*
X177130344Y-77220463D01*
X176956227Y-77031697D01*
X176748629Y-76880527D01*
X176515528Y-76772762D01*
X176414400Y-76742090D01*
X176212000Y-76865776D01*
X175958000Y-76865776D01*
X175755600Y-76742090D01*
X175654472Y-76772762D01*
X175421371Y-76880527D01*
X175213773Y-77031697D01*
X175085000Y-77171304D01*
X174956227Y-77031697D01*
X174748629Y-76880527D01*
X174515528Y-76772762D01*
X174414400Y-76742090D01*
X174212000Y-76865776D01*
X173958000Y-76865776D01*
X173755600Y-76742090D01*
X173654472Y-76772762D01*
X173421371Y-76880527D01*
X173213773Y-77031697D01*
X173091681Y-77164060D01*
X172920077Y-76992456D01*
X172705518Y-76849093D01*
X172467113Y-76750342D01*
X172214024Y-76700000D01*
X171955976Y-76700000D01*
X171702887Y-76750342D01*
X171464482Y-76849093D01*
X171249923Y-76992456D01*
X171085000Y-77157379D01*
X170920077Y-76992456D01*
X170705518Y-76849093D01*
X170467113Y-76750342D01*
X170214024Y-76700000D01*
X169955976Y-76700000D01*
X169702887Y-76750342D01*
X169464482Y-76849093D01*
X169249923Y-76992456D01*
X169085000Y-77157379D01*
X168974000Y-77046379D01*
X168974000Y-76688660D01*
X168978300Y-76645000D01*
X168974000Y-76601340D01*
X168974000Y-76601333D01*
X168961136Y-76470726D01*
X168956063Y-76454000D01*
X168927456Y-76359697D01*
X168910303Y-76303149D01*
X168827753Y-76148709D01*
X168779206Y-76089554D01*
X168744495Y-76047259D01*
X168744494Y-76047258D01*
X168716659Y-76013341D01*
X168682743Y-75985507D01*
X168389236Y-75692000D01*
X177775000Y-75692000D01*
X177775001Y-99035000D01*
X169534273Y-99035000D01*
X169720666Y-98910456D01*
X170035456Y-98595666D01*
X170282786Y-98225511D01*
X170453149Y-97814218D01*
X170540000Y-97377591D01*
X170540000Y-96932409D01*
X170453149Y-96495782D01*
X170282786Y-96084489D01*
X170035456Y-95714334D01*
X169720666Y-95399544D01*
X169350511Y-95152214D01*
X168939218Y-94981851D01*
X168502591Y-94895000D01*
X168057409Y-94895000D01*
X167620782Y-94981851D01*
X167209489Y-95152214D01*
X166839334Y-95399544D01*
X166524544Y-95714334D01*
X166277214Y-96084489D01*
X166106851Y-96495782D01*
X166020000Y-96932409D01*
X166020000Y-97377591D01*
X166106851Y-97814218D01*
X166277214Y-98225511D01*
X166524544Y-98595666D01*
X166839334Y-98910456D01*
X167025727Y-99035000D01*
X159374273Y-99035000D01*
X159560666Y-98910456D01*
X159875456Y-98595666D01*
X160122786Y-98225511D01*
X160293149Y-97814218D01*
X160380000Y-97377591D01*
X160380000Y-96932409D01*
X160293149Y-96495782D01*
X160122786Y-96084489D01*
X159875456Y-95714334D01*
X159560666Y-95399544D01*
X159190511Y-95152214D01*
X158779218Y-94981851D01*
X158342591Y-94895000D01*
X157897409Y-94895000D01*
X157460782Y-94981851D01*
X157049489Y-95152214D01*
X156679334Y-95399544D01*
X156364544Y-95714334D01*
X156117214Y-96084489D01*
X155946851Y-96495782D01*
X155860000Y-96932409D01*
X155860000Y-97377591D01*
X155946851Y-97814218D01*
X156117214Y-98225511D01*
X156364544Y-98595666D01*
X156679334Y-98910456D01*
X156865727Y-99035000D01*
X154965000Y-99035000D01*
X154965000Y-75692000D01*
X159270765Y-75692000D01*
X155612259Y-79350506D01*
G37*
X155612259Y-79350506D02*
X155578342Y-79378341D01*
X155550507Y-79412258D01*
X155550505Y-79412260D01*
X155467248Y-79513709D01*
X155384698Y-79668148D01*
X155333864Y-79835726D01*
X155316700Y-80010000D01*
X155321001Y-80053670D01*
X155321000Y-92666340D01*
X155316700Y-92710000D01*
X155321000Y-92753660D01*
X155321000Y-92753666D01*
X155327312Y-92817753D01*
X155333864Y-92884274D01*
X155354146Y-92951136D01*
X155384697Y-93051850D01*
X155467247Y-93206290D01*
X155578341Y-93341659D01*
X155612264Y-93369499D01*
X156820506Y-94577741D01*
X156848341Y-94611659D01*
X156983709Y-94722753D01*
X157138149Y-94805303D01*
X157204058Y-94825296D01*
X157305724Y-94856136D01*
X157338924Y-94859406D01*
X157436333Y-94869000D01*
X157436339Y-94869000D01*
X157479999Y-94873300D01*
X157523659Y-94869000D01*
X160611340Y-94869000D01*
X160655000Y-94873300D01*
X160698660Y-94869000D01*
X160698667Y-94869000D01*
X160829274Y-94856136D01*
X160996851Y-94805303D01*
X161151291Y-94722753D01*
X161286659Y-94611659D01*
X161314499Y-94577736D01*
X163157742Y-92734494D01*
X163191659Y-92706659D01*
X163302753Y-92571291D01*
X163385303Y-92416851D01*
X163436136Y-92249274D01*
X163449000Y-92118667D01*
X163449000Y-92118660D01*
X163453300Y-92075000D01*
X163449000Y-92031340D01*
X163449000Y-91888741D01*
X163449261Y-91888567D01*
X163568691Y-91769137D01*
X164315469Y-91769137D01*
X164382206Y-92009025D01*
X164630892Y-92125924D01*
X164897606Y-92192061D01*
X165172097Y-92204895D01*
X165443817Y-92163931D01*
X165702326Y-92070744D01*
X165817794Y-92009025D01*
X165884531Y-91769137D01*
X165100000Y-90984605D01*
X164315469Y-91769137D01*
X163568691Y-91769137D01*
X163643567Y-91694261D01*
X163796233Y-91465780D01*
X163827830Y-91389499D01*
X163834256Y-91407326D01*
X163895975Y-91522794D01*
X164135863Y-91589531D01*
X164920395Y-90805000D01*
X165279605Y-90805000D01*
X166064137Y-91589531D01*
X166304025Y-91522794D01*
X166420924Y-91274108D01*
X166487061Y-91007394D01*
X166499895Y-90732903D01*
X166458931Y-90461183D01*
X166365744Y-90202674D01*
X166304025Y-90087206D01*
X166064137Y-90020469D01*
X165279605Y-90805000D01*
X164920395Y-90805000D01*
X164135863Y-90020469D01*
X163895975Y-90087206D01*
X163830400Y-90226707D01*
X163796233Y-90144220D01*
X163643567Y-89915739D01*
X163449261Y-89721433D01*
X163220780Y-89568767D01*
X162966907Y-89463609D01*
X162697396Y-89410000D01*
X162422604Y-89410000D01*
X162153093Y-89463609D01*
X161899220Y-89568767D01*
X161670739Y-89721433D01*
X161476433Y-89915739D01*
X161323767Y-90144220D01*
X161290000Y-90225740D01*
X161256233Y-90144220D01*
X161103567Y-89915739D01*
X160909261Y-89721433D01*
X160909000Y-89721259D01*
X160909000Y-89611544D01*
X161152604Y-89660000D01*
X161427396Y-89660000D01*
X161696907Y-89606391D01*
X161950780Y-89501233D01*
X162179261Y-89348567D01*
X162373567Y-89154261D01*
X162526233Y-88925780D01*
X162560000Y-88844260D01*
X162593767Y-88925780D01*
X162746433Y-89154261D01*
X162940739Y-89348567D01*
X163169220Y-89501233D01*
X163423093Y-89606391D01*
X163692604Y-89660000D01*
X163967396Y-89660000D01*
X164236907Y-89606391D01*
X164490780Y-89501233D01*
X164719261Y-89348567D01*
X164913567Y-89154261D01*
X164975526Y-89061533D01*
X164984188Y-89149482D01*
X165020498Y-89269180D01*
X165079463Y-89379494D01*
X165103377Y-89408634D01*
X165027903Y-89405105D01*
X164756183Y-89446069D01*
X164497674Y-89539256D01*
X164382206Y-89600975D01*
X164315469Y-89840863D01*
X165100000Y-90625395D01*
X165884531Y-89840863D01*
X165835069Y-89663072D01*
X167130000Y-89663072D01*
X167254482Y-89650812D01*
X167374180Y-89614502D01*
X167484494Y-89555537D01*
X167581185Y-89476185D01*
X167660537Y-89379494D01*
X167719502Y-89269180D01*
X167755812Y-89149482D01*
X167768072Y-89025000D01*
X167768072Y-87505000D01*
X167755812Y-87380518D01*
X167719502Y-87260820D01*
X167660537Y-87150506D01*
X167581185Y-87053815D01*
X167484494Y-86974463D01*
X167374180Y-86915498D01*
X167254482Y-86879188D01*
X167130000Y-86866928D01*
X166974000Y-86866928D01*
X166974000Y-80973621D01*
X167085000Y-80862621D01*
X167249923Y-81027544D01*
X167464482Y-81170907D01*
X167702887Y-81269658D01*
X167955976Y-81320000D01*
X168214024Y-81320000D01*
X168467113Y-81269658D01*
X168705518Y-81170907D01*
X168920077Y-81027544D01*
X169085000Y-80862621D01*
X169249923Y-81027544D01*
X169464482Y-81170907D01*
X169702887Y-81269658D01*
X169955976Y-81320000D01*
X170214024Y-81320000D01*
X170467113Y-81269658D01*
X170705518Y-81170907D01*
X170920077Y-81027544D01*
X171091681Y-80855940D01*
X171213773Y-80988303D01*
X171421371Y-81139473D01*
X171654472Y-81247238D01*
X171755600Y-81277910D01*
X171958000Y-81154224D01*
X171958000Y-80137000D01*
X172212000Y-80137000D01*
X172212000Y-81154224D01*
X172414400Y-81277910D01*
X172515528Y-81247238D01*
X172748629Y-81139473D01*
X172956227Y-80988303D01*
X173085000Y-80848696D01*
X173213773Y-80988303D01*
X173421371Y-81139473D01*
X173654472Y-81247238D01*
X173755600Y-81277910D01*
X173958000Y-81154224D01*
X173958000Y-80137000D01*
X174212000Y-80137000D01*
X174212000Y-81154224D01*
X174414400Y-81277910D01*
X174515528Y-81247238D01*
X174748629Y-81139473D01*
X174881881Y-81042441D01*
X174958815Y-81136185D01*
X175055506Y-81215537D01*
X175165820Y-81274502D01*
X175285518Y-81310812D01*
X175410000Y-81323072D01*
X175799250Y-81320000D01*
X175958000Y-81161250D01*
X175958000Y-80137000D01*
X176212000Y-80137000D01*
X176212000Y-81161250D01*
X176370750Y-81320000D01*
X176760000Y-81323072D01*
X176884482Y-81310812D01*
X177004180Y-81274502D01*
X177114494Y-81215537D01*
X177211185Y-81136185D01*
X177290537Y-81039494D01*
X177349502Y-80929180D01*
X177385812Y-80809482D01*
X177398072Y-80685000D01*
X177395000Y-80295750D01*
X177236250Y-80137000D01*
X176212000Y-80137000D01*
X175958000Y-80137000D01*
X174212000Y-80137000D01*
X173958000Y-80137000D01*
X172212000Y-80137000D01*
X171958000Y-80137000D01*
X171938000Y-80137000D01*
X171938000Y-79883000D01*
X171958000Y-79883000D01*
X171958000Y-79863000D01*
X172212000Y-79863000D01*
X172212000Y-79883000D01*
X173958000Y-79883000D01*
X173958000Y-78137000D01*
X174212000Y-78137000D01*
X174212000Y-79883000D01*
X175958000Y-79883000D01*
X175958000Y-78137000D01*
X176212000Y-78137000D01*
X176212000Y-79883000D01*
X177236250Y-79883000D01*
X177395000Y-79724250D01*
X177398072Y-79335000D01*
X177385812Y-79210518D01*
X177349502Y-79090820D01*
X177290537Y-78980506D01*
X177211185Y-78883815D01*
X177120929Y-78809744D01*
X177130344Y-78799537D01*
X177264289Y-78580430D01*
X177352915Y-78339401D01*
X177230085Y-78137000D01*
X176212000Y-78137000D01*
X175958000Y-78137000D01*
X174212000Y-78137000D01*
X173958000Y-78137000D01*
X173938000Y-78137000D01*
X173938000Y-77883000D01*
X173958000Y-77883000D01*
X173958000Y-76865776D01*
X174212000Y-76865776D01*
X174212000Y-77883000D01*
X175958000Y-77883000D01*
X175958000Y-76865776D01*
X176212000Y-76865776D01*
X176212000Y-77883000D01*
X177230085Y-77883000D01*
X177352915Y-77680599D01*
X177264289Y-77439570D01*
X177130344Y-77220463D01*
X176956227Y-77031697D01*
X176748629Y-76880527D01*
X176515528Y-76772762D01*
X176414400Y-76742090D01*
X176212000Y-76865776D01*
X175958000Y-76865776D01*
X175755600Y-76742090D01*
X175654472Y-76772762D01*
X175421371Y-76880527D01*
X175213773Y-77031697D01*
X175085000Y-77171304D01*
X174956227Y-77031697D01*
X174748629Y-76880527D01*
X174515528Y-76772762D01*
X174414400Y-76742090D01*
X174212000Y-76865776D01*
X173958000Y-76865776D01*
X173755600Y-76742090D01*
X173654472Y-76772762D01*
X173421371Y-76880527D01*
X173213773Y-77031697D01*
X173091681Y-77164060D01*
X172920077Y-76992456D01*
X172705518Y-76849093D01*
X172467113Y-76750342D01*
X172214024Y-76700000D01*
X171955976Y-76700000D01*
X171702887Y-76750342D01*
X171464482Y-76849093D01*
X171249923Y-76992456D01*
X171085000Y-77157379D01*
X170920077Y-76992456D01*
X170705518Y-76849093D01*
X170467113Y-76750342D01*
X170214024Y-76700000D01*
X169955976Y-76700000D01*
X169702887Y-76750342D01*
X169464482Y-76849093D01*
X169249923Y-76992456D01*
X169085000Y-77157379D01*
X168974000Y-77046379D01*
X168974000Y-76688660D01*
X168978300Y-76645000D01*
X168974000Y-76601340D01*
X168974000Y-76601333D01*
X168961136Y-76470726D01*
X168956063Y-76454000D01*
X168927456Y-76359697D01*
X168910303Y-76303149D01*
X168827753Y-76148709D01*
X168779206Y-76089554D01*
X168744495Y-76047259D01*
X168744494Y-76047258D01*
X168716659Y-76013341D01*
X168682743Y-75985507D01*
X168389236Y-75692000D01*
X177775000Y-75692000D01*
X177775001Y-99035000D01*
X169534273Y-99035000D01*
X169720666Y-98910456D01*
X170035456Y-98595666D01*
X170282786Y-98225511D01*
X170453149Y-97814218D01*
X170540000Y-97377591D01*
X170540000Y-96932409D01*
X170453149Y-96495782D01*
X170282786Y-96084489D01*
X170035456Y-95714334D01*
X169720666Y-95399544D01*
X169350511Y-95152214D01*
X168939218Y-94981851D01*
X168502591Y-94895000D01*
X168057409Y-94895000D01*
X167620782Y-94981851D01*
X167209489Y-95152214D01*
X166839334Y-95399544D01*
X166524544Y-95714334D01*
X166277214Y-96084489D01*
X166106851Y-96495782D01*
X166020000Y-96932409D01*
X166020000Y-97377591D01*
X166106851Y-97814218D01*
X166277214Y-98225511D01*
X166524544Y-98595666D01*
X166839334Y-98910456D01*
X167025727Y-99035000D01*
X159374273Y-99035000D01*
X159560666Y-98910456D01*
X159875456Y-98595666D01*
X160122786Y-98225511D01*
X160293149Y-97814218D01*
X160380000Y-97377591D01*
X160380000Y-96932409D01*
X160293149Y-96495782D01*
X160122786Y-96084489D01*
X159875456Y-95714334D01*
X159560666Y-95399544D01*
X159190511Y-95152214D01*
X158779218Y-94981851D01*
X158342591Y-94895000D01*
X157897409Y-94895000D01*
X157460782Y-94981851D01*
X157049489Y-95152214D01*
X156679334Y-95399544D01*
X156364544Y-95714334D01*
X156117214Y-96084489D01*
X155946851Y-96495782D01*
X155860000Y-96932409D01*
X155860000Y-97377591D01*
X155946851Y-97814218D01*
X156117214Y-98225511D01*
X156364544Y-98595666D01*
X156679334Y-98910456D01*
X156865727Y-99035000D01*
X154965000Y-99035000D01*
X154965000Y-75692000D01*
X159270765Y-75692000D01*
X155612259Y-79350506D01*
%TD*%
M02*
